# AST/ASF file generated using VICON BodyLanguage
# -----------------------------------------------
:version 1.10
:name VICON
:units
  mass 1.0
  length 0.45
  angle deg
:documentation
   .ast/.asf automatically generated from VICON data using
   VICON BodyBuilder and BodyLanguage model FoxedUp or BRILLIANT.MOD
:root
   order TX TY TZ RX RY RZ
   axis XYZ
   position 0 0 0  
   orientation 0 0 0 
:bonedata
  begin
     id 1 
     name lhipjoint
     direction 0.561145 -0.797705 0.220866 
     length 2.46425 
     axis 0 0 0  XYZ
  end
  begin
     id 2 
     name lfemur
     direction 0.34202 -0.939693 0  
     length 7.95556  
     axis 0 0 20  XYZ
    dof rx ry rz
    limits (-160.0 20.0)
           (-70.0 70.0)
           (-60.0 70.0)
  end
  begin
     id 3 
     name ltibia
     direction 0.34202 -0.939693 0   
     length 7.9832   
     axis 0 0 20   XYZ
    dof rx
    limits (-10.0 170.0)
  end
  begin
     id 4 
     name lfoot
     direction 0.0723927 -0.198897 0.977343   
     length 2.23085   
     axis -90 7.62852e-016 20   XYZ
    dof rx rz
    limits (-45.0 90.0)
           (-70.0 20.0)
  end
  begin
     id 5 
     name ltoes
     direction 1.53826e-011 -4.21988e-011 1   
     length 1.12127   
     axis -90 7.62852e-016 20   XYZ
    dof rx
    limits (-90.0 20.0)
  end
  begin
     id 6 
     name rhipjoint
     direction -0.610499 -0.763299 0.21134   
     length 2.57533  
     axis 0 0 0  XYZ 
  end
  begin
     id 7 
     name rfemur
     direction -0.34202 -0.939693 0   
     length 8.65257   
     axis 0 0 -20   XYZ
    dof rx ry rz
    limits (-160.0 20.0)
           (-70.0 70.0)
           (-70.0 60.0)
  end
  begin
     id 8 
     name rtibia
     direction -0.342021 -0.939692 0   
     length 7.37807   
     axis 0 0 -20   XYZ
    dof rx
    limits (-10.0 170.0)
 end
 begin
     id 9 
     name rfoot
     direction -0.0239304 -0.0543852 0.998233   
     length 1.87018  
     axis -90 -7.62852e-016 -20   XYZ
    dof rx rz
    limits (-45.0 90.0)
           (-20.0 70.0)
  end
  begin
     id 10 
     name rtoes
     direction -1.53584e-011 -4.2242e-011 1   
     length 0.951568   
     axis -90 -7.62852e-016 -20   XYZ
    dof rx
    limits (-90.0 20.0)
  end
  begin
     id 11 
     name lowerback
     direction 0.00322089 0.999033 0.0438587   
     length 2.07568   
     axis 0 0 0   XYZ
    dof rx ry rz
    limits (-20.0 45.0)
           (-30.0 30.0)
           (-30.0 30.0)
  end
  begin
     id 12 
     name upperback
     direction -0.00321932 0.999732 -0.0229403   
     length 2.06253   
     axis 0 0 0   XYZ
    dof rx ry rz
    limits (-20.0 45.0)
           (-30.0 30.0)
           (-30.0 30.0)
  end
  begin
     id 13 
     name thorax
     direction -0.00537537 0.998955 -0.0453918   
     length 2.06975   
     axis 0 0 0   XYZ
    dof rx ry rz
    limits (-20.0 45.0)
           (-30.0 30.0)
           (-30.0 30.0)
  end
  begin
     id 14 
     name lowerneck
     direction -0.00013604 0.994111 0.108363   
     length 1.50836   
     axis 0 0 0   XYZ
    dof rx ry rz
    limits (-20.0 45.0)
           (-30.0 30.0)
           (-30.0 30.0)
  end
  begin
     id 15 
     name upperneck
     direction 0.0397262 0.983859 -0.174482   
     length 1.53037   
     axis 0 0 0   XYZ
    dof rx ry rz
    limits (-20.0 45.0)
           (-30.0 30.0)
           (-30.0 30.0)
  end
  begin
     id 16
     name head
     direction 0.0109991 0.997082 -0.0755378  
     length 1.56928  
     axis 0 0 0   XYZ
    dof rx ry rz
    limits (-20.0 45.0)
           (-30.0 30.0)
           (-30.0 30.0)
  end
  begin
     id 17 
     name lclavicle
     direction 0.964749 0.254 -0.068874  
     length 3.26503  
     axis 0 0 0   XYZ
    dof ry rz
    limits (-20.0 10.0)
           (0.0 20.0)
  end
  begin
     id 18 
     name lhumerus
     direction 1 -4.48941e-011 -2.05079e-027   
     length 5.68236   
     axis 180 -30 -90   XYZ
    dof rx ry rz
    limits (-60.0 90.0)
           (-90.0 90.0)
           (-90.0 90.0)
  end
  begin
     id 19
     name lradius
     direction 1 -4.48956e-011 6.2882e-027   
     length 3.17112   
     axis 180 -30 -90   XYZ
    dof rx
    limits (-10.0 170.0)
  end
  begin
     id 20
     name lwrist
     direction 1 -4.49014e-011 1.73219e-026   
     length 1.58556   
     axis -1.04724e-014 90 90   XYZ
    dof ry
    limits (-180.0 0.0)
 end
  begin
     id 21 
     name lhand
     direction 1 -4.49312e-011 3.46438e-026   
     length 0.632691   
     axis -2.21057e-014 90 90   XYZ
    dof rx rz
    limits (-90.0 90.0)
           (-45.0 45.0)
  end
  begin
     id 22 
     name lfingers
     direction 1 -4.48894e-011 6.92876e-026   
     length 0.510091   
     axis -4.42114e-014 90 90   XYZ
    dof rx
    limits (0.0 90.0)
  end
  begin
     id 23
     name lthumb
     direction 0.707107 -6.34705e-011 0.707107   
     length 0.732392   
     axis -90 45 2.85299e-015   XYZ
    dof rx rz
    limits (-45.0 45.0)
           (-45.0 45.0)
  end
  begin
     id 24 
     name rclavicle
     direction -0.954374 0.280496 -0.102435   
     length 3.25419  
     axis 0 0 0   XYZ 
    dof ry rz
    limits (-10.0 20.0)
           (-20.0 0.0)
  end
  begin
     id 25 
     name rhumerus
     direction -1 -4.48994e-011 -1.07204e-017  
     length 5.8712   
     axis 180 30 90   XYZ
    dof rx ry rz
    limits (-90.0 60.0)
           (-90.0 90.0)
           (-90.0 90.0)
  end
  begin
     id 26 
     name rradius
     direction -1 -4.48972e-011 5.89292e-027   
     length 3.37589   
     axis 180 30 90   XYZ
    dof rx
    limits (-10.0 170.0)
  end
  begin
     id 27 
     name rwrist
     direction -1 -4.48942e-011 1.73219e-026   
     length 1.68794   
     axis -1.04724e-014 -90 -90   XYZ
    dof ry
    limits (-180.0 0.0)
  end
  begin
     id 28
     name rhand
     direction -1 -4.48514e-011 3.46438e-026   
     length 0.603257   
     axis -2.21057e-014 -90 -90   XYZ
    dof rx rz
    limits (-90.0 90.0)
           (-45.0 45.0)
  end
  begin
     id 29
     name rfingers
     direction -1 -4.50028e-011 6.92876e-026   
     length 0.486362   
     axis -4.42114e-014 -90 -90   XYZ
    dof rx
    limits (0.0 90.0)
  end
  begin
     id 30
     name rthumb
     direction -0.707107 -6.34926e-011 0.707107   
     length 0.698321   
     axis -90 -45 -2.85299e-015   XYZ
    dof rx rz
    limits (-45.0 45.0)
           (-45.0 45.0)
  end
:hierarchy
  begin
    root lhipjoint rhipjoint lowerback
    lhipjoint lfemur
    lfemur ltibia
    ltibia lfoot
    lfoot ltoes
    rhipjoint rfemur
    rfemur rtibia
    rtibia rfoot
    rfoot rtoes
    lowerback upperback
    upperback thorax
    thorax lowerneck lclavicle rclavicle
    lowerneck upperneck
    upperneck head
    lclavicle lhumerus
    lhumerus lradius
    lradius lwrist
    lwrist lhand lthumb
    lhand lfingers
    rclavicle rhumerus
    rhumerus rradius
    rradius rwrist
    rwrist rhand rthumb
    rhand rfingers
  end

#!OML:ASF I:\Segmentation\Patient Classification 1\Patient 1\Session 1\Patient1.ASF
:FULLY-SPECIFIED
:DEGREES
1002
root 19.8147 21.4276 -1.84574 7.93222 87.6368 -384.232
lowerback 1.77753 1.31767 1.14378
upperback 1.96416 1.78111 0.781943
thorax 1.02536 0.907002 0.145283
lowerneck -20.4667 -1.39795 -5.19412
upperneck 19.1426 -1.07809 3.5383
head 9.47064 -0.452482 1.9404
rclavicle 4.37326e-015 -3.97569e-016
rhumerus 19.9896 8.53303 -68.7719
rradius 108.573
rwrist -13.4487
rhand -25.0316 33.296
rfingers 7.12502
rthumb 1.48108 3.32138
lclavicle 4.37326e-015 -3.97569e-016
lhumerus 20.0124 -2.00993 63.6178
lradius 117.38
lwrist 30.3776
lhand -10.2099 31.382
lfingers 7.12502
lthumb 15.7816 60.7587
rfemur -70.9644 -2.88414 24.0139
rtibia 75.9643
rfoot 6.50557 2.18186
rtoes -50.7801
lfemur -75.1153 5.224 -23.8026
ltibia 95.6132
lfoot 5.73324 2.61743
ltoes -22.3887
1003
root 20.0096 21.3571 -1.84095 2.05394 87.8122 -390.174
lowerback 2.04778 1.31847 1.39887
upperback 2.16052 1.79154 0.873282
thorax 1.08058 0.917663 0.0923258
lowerneck -20.5658 -1.42777 -5.19562
upperneck 18.9316 -1.0804 3.3887
head 9.414 -0.470728 1.88549
rclavicle -3.18055e-014 -2.50469e-014
rhumerus 18.6925 8.4946 -69.1795
rradius 107.224
rwrist -13.1911
rhand -25.245 33.3752
rfingers 7.12502
rthumb 1.27494 3.39925
lclavicle -3.18055e-014 -2.50469e-014
lhumerus 18.874 -2.42695 63.9806
lradius 116.649
lwrist 30.1004
lhand -10.6719 31.246
lfingers 7.12502
lthumb 15.3365 60.6573
rfemur -71.5891 -3.04157 24.416
rtibia 74.1335
rfoot 6.86998 2.25001
rtoes -48.9184
lfemur -76.1337 5.11249 -23.8214
ltibia 94.4677
lfoot 5.45992 2.61729
ltoes -22.2033
1004
root 20.2089 21.2811 -1.83422 0.424162 87.9971 -391.884
lowerback 2.24419 1.29674 1.40874
upperback 2.3764 1.76791 0.934206
thorax 1.19033 0.908717 0.147945
lowerneck -20.7234 -1.42753 -5.06887
upperneck 18.7422 -1.05648 3.14218
head 9.37286 -0.478283 1.77981
rclavicle 4.81059e-014 7.35503e-014
rhumerus 17.4619 8.54283 -69.5739
rradius 105.872
rwrist -13.3206
rhand -25.5311 33.4394
rfingers 7.12502
rthumb 0.998669 3.46202
lclavicle 4.81059e-014 7.35503e-014
lhumerus 17.6082 -2.83652 64.338
lradius 115.952
lwrist 30.02
lhand -11.6067 30.9356
lfingers 7.12502
lthumb 14.436 60.4135
rfemur -72.1551 -3.19417 24.5033
rtibia 72.0838
rfoot 7.37071 2.08959
rtoes -46.9551
lfemur -76.9364 4.87209 -23.9376
ltibia 92.9709
lfoot 5.02011 2.51317
ltoes -23.0307
1005
root 20.4115 21.1961 -1.82721 3.48009 88.2006 -388.941
lowerback 2.50552 1.27167 1.28112
upperback 2.48294 1.7391 0.930692
thorax 1.14941 0.89374 0.211033
lowerneck -20.8043 -1.49976 -5.27036
upperneck 18.7188 -1.13629 3.34461
head 9.38521 -0.506368 1.87222
rclavicle 3.97569e-015 2.70347e-014
rhumerus 15.955 8.55721 -70.1321
rradius 104.59
rwrist -13.3387
rhand -25.6964 33.4383
rfingers 7.12502
rthumb 0.838989 3.46023
lclavicle 3.97569e-015 2.70347e-014
lhumerus 16.1273 -3.36372 64.7822
lradius 115.283
lwrist 30.0301
lhand -12.6777 30.7909
lfingers 7.12502
lthumb 13.4038 60.3397
rfemur -72.6557 -3.30366 24.324
rtibia 69.8422
rfoot 8.00039 1.47164
rtoes -44.841
lfemur -77.5637 4.56358 -24.1436
ltibia 91.1557
lfoot 4.49498 2.4171
ltoes -22.4448
1006
root 20.6177 21.1039 -1.81682 -0.0310816 88.4271 -392.495
lowerback 2.90231 1.23732 1.33555
upperback 2.51872 1.70426 0.974969
thorax 0.964293 0.877328 0.216996
lowerneck -20.4366 -1.54042 -5.30725
upperneck 18.2846 -1.19934 3.34904
head 9.17169 -0.538611 1.86605
rclavicle 1.70955e-014 -2.78299e-015
rhumerus 14.2154 8.5166 -70.7671
rradius 103.437
rwrist -13.3316
rhand -25.9131 33.3532
rfingers 7.12502
rthumb 0.629708 3.3744
lclavicle 1.70955e-014 -2.78299e-015
lhumerus 14.5335 -3.94775 65.2953
lradius 114.601
lwrist 30.0125
lhand -13.0522 30.8992
lfingers 7.12502
lthumb 13.0429 60.4714
rfemur -72.9115 -3.38652 24.3298
rtibia 67.4212
rfoot 8.41164 0.849345
rtoes -43.3644
lfemur -78.0641 4.31196 -24.0877
ltibia 89.0937
lfoot 3.99195 2.24167
ltoes -21.2457
1007
root 20.8251 21.0049 -1.80527 -7.55571 88.6679 -400.03
lowerback 3.26447 1.20156 1.41811
upperback 2.59766 1.66846 1.03269
thorax 0.843407 0.86149 0.223001
lowerneck -20.3797 -1.53557 -5.45158
upperneck 18.1953 -1.18303 3.49005
head 9.13158 -0.525352 1.9399
rclavicle -3.97569e-015 -5.1684e-015
rhumerus 12.5397 8.3748 -71.4208
rradius 102.264
rwrist -13.3005
rhand -26.1341 33.2234
rfingers 7.12502
rthumb 0.416246 3.24404
lclavicle -3.97569e-015 -5.1684e-015
lhumerus 13.0367 -4.49647 65.8217
lradius 113.892
lwrist 29.9847
lhand -12.825 31.2041
lfingers 7.12502
lthumb 13.2619 60.7622
rfemur -73.0633 -3.47731 24.3361
rtibia 64.869
rfoot 9.03559 0.588711
rtoes -43.0962
lfemur -78.4798 4.05902 -23.924
ltibia 86.8077
lfoot 3.52916 1.99464
ltoes -21.1704
1008
root 21.0351 20.892 -1.79679 -8.33778 88.9047 -400.896
lowerback 3.43341 1.19357 1.40188
upperback 2.73491 1.6622 0.990794
thorax 0.890698 0.86046 0.187435
lowerneck -20.18 -1.58112 -5.31548
upperneck 17.7452 -1.29029 3.46273
head 8.94462 -0.569188 1.88854
rclavicle -9.14409e-015 -3.10104e-014
rhumerus 10.98 8.0771 -72.1201
rradius 101.036
rwrist -13.1805
rhand -26.4367 32.9886
rfingers 7.12502
rthumb 0.12401 3.00893
lclavicle -9.14409e-015 -3.10104e-014
lhumerus 11.7141 -5.06744 66.3242
lradius 113.133
lwrist 30.0062
lhand -12.832 31.4387
lfingers 7.12502
lthumb 13.2552 60.9973
rfemur -73.2988 -3.59965 24.1058
rtibia 62.2548
rfoot 10.4011 -0.163375
rtoes -40.5109
lfemur -78.7959 3.77096 -23.9374
ltibia 84.2906
lfoot 2.9693 1.76705
ltoes -21.2799
1009
root 21.2507 20.757 -1.78851 -11.2502 89.043 -403.972
lowerback 3.47541 1.20369 1.41869
upperback 2.85208 1.67796 1.00035
thorax 0.987912 0.870498 0.188333
lowerneck -20.04 -1.67021 -5.37669
upperneck 17.3956 -1.42581 3.58016
head 8.80757 -0.624051 1.91726
rclavicle 1.19271e-015 -3.18055e-014
rhumerus 9.49772 7.82628 -72.7393
rradius 99.7728
rwrist -13.1441
rhand -27.1158 32.7792
rfingers 7.12502
rthumb -0.531937 2.80008
lclavicle 1.19271e-015 -3.18055e-014
lhumerus 10.4417 -5.55255 66.9218
lradius 112.301
lwrist 30.201
lhand -13.1301 31.591
lfingers 7.12502
lthumb 12.9678 61.168
rfemur -73.5513 -3.47018 23.7333
rtibia 59.6605
rfoot 11.6608 -1.84305
rtoes -36.7519
lfemur -79.0965 3.57355 -23.8815
ltibia 81.6167
lfoot 2.21765 1.54911
ltoes -22.13
1010
root 21.4703 20.6026 -1.77811 -19.7935 89.1305 -412.624
lowerback 3.57327 1.22825 1.45008
upperback 2.92899 1.7149 1.06065
thorax 1.01168 0.890427 0.230465
lowerneck -20.2511 -1.80546 -5.93126
upperneck 17.6911 -1.54677 4.08941
head 8.96122 -0.661201 2.17087
rclavicle -9.14409e-015 -1.27222e-014
rhumerus 7.96868 7.51826 -73.378
rradius 98.4965
rwrist -13.2904
rhand -27.5608 32.5299
rfingers 7.12502
rthumb -0.961703 2.55237
lclavicle -9.14409e-015 -1.27222e-014
lhumerus 9.13387 -6.01195 67.606
lradius 111.423
lwrist 30.4115
lhand -13.2185 31.8096
lfingers 7.12502
lthumb 12.8825 61.392
rfemur -73.6602 -3.01087 23.0901
rtibia 57.1396
rfoot 12.0777 -3.85878
rtoes -34.8734
lfemur -79.3082 3.44304 -23.6882
ltibia 78.7967
lfoot 1.6289 1.37273
ltoes -23.1047
1011
root 21.6899 20.4458 -1.76722 -27.4837 89.3255 -420.266
lowerback 3.86325 1.23088 1.38783
upperback 3.01728 1.72517 1.07631
thorax 0.938267 0.895897 0.275178
lowerneck -20.3015 -1.90243 -6.04233
upperneck 17.7391 -1.66409 4.18183
head 8.99505 -0.713051 2.20576
rclavicle -4.6118e-014 -3.73715e-014
rhumerus 6.37837 7.05256 -74.079
rradius 97.2829
rwrist -13.3864
rhand -27.4559 32.1403
rfingers 7.12502
rthumb -0.860413 2.16229
lclavicle -4.6118e-014 -3.73715e-014
lhumerus 7.75471 -6.53932 68.32
lradius 110.535
lwrist 30.2554
lhand -13.1834 31.7937
lfingers 7.12502
lthumb 12.9165 61.3739
rfemur -73.5915 -2.64671 22.2164
rtibia 54.697
rfoot 12.2595 -5.80906
rtoes -32.5723
lfemur -79.2154 3.26693 -23.5743
ltibia 75.7748
lfoot 1.57078 1.29611
ltoes -22.5971
1012
root 21.9099 20.2883 -1.75843 -36.2905 89.6055 -429.01
lowerback 4.21109 1.21229 1.20761
upperback 3.10619 1.70497 1.12414
thorax 0.828711 0.884146 0.41829
lowerneck -20.4147 -1.98395 -6.12767
upperneck 17.7639 -1.74173 4.17133
head 9.02888 -0.755707 2.2058
rclavicle -4.05521e-014 -3.26007e-014
rhumerus 4.87171 6.62594 -74.6217
rradius 96.0467
rwrist -13.2673
rhand -27.3744 32.0505
rfingers 7.12502
rthumb -0.781651 2.07215
lclavicle -4.05521e-014 -3.26007e-014
lhumerus 6.25131 -7.01334 69.2151
lradius 109.662
lwrist 29.7083
lhand -13.3542 31.4663
lfingers 7.12502
lthumb 12.7517 61.0569
rfemur -73.5696 -2.46254 21.2855
rtibia 52.3389
rfoot 12.6068 -7.32255
rtoes -30.805
lfemur -78.9588 3.02962 -23.5583
ltibia 72.5995
lfoot 1.66089 1.30667
ltoes -21.9217
1013
root 22.1333 20.1154 -1.75272 -54.7726 89.8128 -447.419
lowerback 4.53535 1.23023 1.08007
upperback 3.2012 1.7336 1.16378
thorax 0.740707 0.897834 0.522671
lowerneck -20.4545 -2.08736 -6.18945
upperneck 17.7149 -1.84775 4.10628
head 9.02525 -0.816448 2.17827
rclavicle -2.10712e-014 -1.39149e-014
rhumerus 3.46658 6.13916 -75.1036
rradius 94.7062
rwrist -13.1614
rhand -27.3916 32.2368
rfingers 7.12502
rthumb -0.798266 2.25858
lclavicle -2.10712e-014 -1.39149e-014
lhumerus 4.75811 -7.39452 70.1555
lradius 108.766
lwrist 29.002
lhand -13.4639 31.1463
lfingers 7.12502
lthumb 12.646 60.7435
rfemur -73.5571 -2.31601 20.4734
rtibia 50.1119
rfoot 12.7417 -8.11315
rtoes -29.7832
lfemur -78.6585 2.87719 -23.5739
ltibia 69.3815
lfoot 1.73995 1.41453
ltoes -22.3424
1014
root 22.3592 19.9256 -1.74494 -85.8361 89.8087 -478.36
lowerback 4.87357 1.29083 1.06584
upperback 3.28237 1.82274 1.19119
thorax 0.634487 0.943458 0.547863
lowerneck -20.5908 -2.20719 -6.28739
upperneck 17.7962 -1.98882 4.16848
head 9.08731 -0.881262 2.19725
rclavicle -3.57812e-015 -2.90226e-014
rhumerus 2.05349 5.59878 -75.6061
rradius 93.3473
rwrist -13.2614
rhand -27.3265 32.3422
rfingers 7.12502
rthumb -0.735466 2.36368
lclavicle -3.57812e-015 -2.90226e-014
lhumerus 3.29974 -7.81816 70.8852
lradius 107.807
lwrist 28.4347
lhand -13.4619 30.7321
lfingers 7.12502
lthumb 12.6479 60.3292
rfemur -73.4325 -2.02624 19.7452
rtibia 48.0919
rfoot 12.1305 -8.95229
rtoes -25.7957
lfemur -78.3338 2.86547 -23.4307
ltibia 66.1745
lfoot 2.05434 1.69998
ltoes -23.6207
1015
root 22.5864 19.7283 -1.73523 -116.223 89.7927 -508.641
lowerback 5.15478 1.34778 0.981273
upperback 3.33121 1.90179 1.17387
thorax 0.525998 0.982652 0.567231
lowerneck -20.4774 -2.28521 -6.24515
upperneck 17.5519 -2.10283 4.12038
head 8.98839 -0.937391 2.15549
rclavicle 1.15295e-014 -2.54444e-014
rhumerus 0.571692 5.03314 -76.1714
rradius 92.0333
rwrist -13.3308
rhand -27.3417 32.4016
rfingers 7.12502
rthumb -0.75014 2.42317
lclavicle 1.15295e-014 -2.54444e-014
lhumerus 1.92918 -8.43729 71.441
lradius 106.735
lwrist 28.0169
lhand -13.6044 30.1996
lfingers 7.12502
lthumb 12.5105 59.8051
rfemur -73.317 -1.56795 18.7147
rtibia 46.3694
rfoot 10.6983 -10.1647
rtoes -20.4502
lfemur -78.0114 2.77132 -23.1822
ltibia 63.0039
lfoot 2.66944 2.26559
ltoes -24.4326
1016
root 22.8125 19.5264 -1.72511 -145.135 89.7679 -537.42
lowerback 5.30445 1.41576 0.843755
upperback 3.45601 1.99081 1.15009
thorax 0.567124 1.02701 0.613776
lowerneck -20.2319 -2.37889 -6.20486
upperneck 17.1128 -2.24202 4.06593
head 8.80096 -1.00701 2.10737
rclavicle -3.97569e-015 2.5842e-014
rhumerus -0.713503 4.38075 -76.6994
rradius 90.7094
rwrist -13.3387
rhand -27.4153 32.2914
rfingers 7.12502
rthumb -0.821242 2.3132
lclavicle -3.97569e-015 2.5842e-014
lhumerus 0.629411 -8.94251 72.13
lradius 105.715
lwrist 27.4325
lhand -13.7082 29.7863
lfingers 7.12502
lthumb 12.4105 59.3979
rfemur -73.2078 -0.941541 17.4045
rtibia 44.9973
rfoot 8.20209 -11.8872
rtoes -12.0615
lfemur -77.6922 2.66018 -22.9174
ltibia 59.9623
lfoot 3.68106 2.98154
ltoes -22.2956
